/* XPM */
static char *_4e3e59f749c4e42d465c4635be3786d[] = {
/* columns rows colors chars-per-pixel */
"120 25 15 1 ",
"  c #FC0000",
". c #FD0000",
"X c #FD0100",
"o c #FD0001",
"O c #FE0000",
"+ c #FF0101",
"@ c #FD0002",
"# c #FE0002",
"$ c #FF0103",
"% c #FEFEFC",
"& c #FFFFFD",
"* c #FEFEFE",
"= c #FFFEFF",
"- c #FEFFFF",
"; c gray100",
/* pixels */
"OOOOOOOOOOOOOOO----------OOOOOOOOOOOOOOO-----OOOOO---------------OOOOOOOOOOOOOOO-----OOOOOOOOOOOOOOO-----OOOOOOOOOO-----",
"OOOOOOOOOOOOOOO----------OOOOOOOOOOOOOOO-----OOOOO---------------OOOOOOOOOOOOOOO-----OOOOOOOOOOOOOOO-----OOOOOOOOOO-----",
"OOOOOOOOOOOOOOO----------OOOOOOOOOOOOOOO-----OOOOO---------------OOOOOOOOOOOOOOO-----OOOOOOOOOOOOOOO-----OOOOOOOOOO-----",
"OOOOOOOOOOOOOOO----------OOOOOOOOOOOOOOO-----OOOOO---------------OOOOOOOOOOOOOOO-----OOOOOOOOOOOOOOO-----OOOOOOOOOO-----",
"OOOOOOOOOOOOOOO----------OOOOOOOOOOOOOOO-----OOOOO---------------OOOOOOOOOOOOOOO-----OOOOOOOOOOOOOOO-----OOOOOOOOOO-----",
"OOOOO-----OOOOO----------OOOOO---------------OOOOO---------------OOOOO-----OOOOO-----OOO$O-----OOOOO-----OOOOO-----OOOOO",
"OOOOO-----OOOOO----------OOOOO---------------OOOOO---------------OOOOO-----OOOOO-----OOOOO-----OOOOO-----OOOOO-----OOOOO",
"OOOOO-----OOOOO----------OOOOO---------------OOOOO---------------OOOOO-----OOOOO-----OOOOO-----OOOOO-----OOOOO-----OOOOO",
"OOOOO-----OOOOO----------OOOOO---------------OOOOO---------------OOOOO-----OOOOO-----OOOOO-----OOOOO-----OOOOO-----OOOOO",
"OOOOO-----OOOOO----------OOOOO---------------OOOOO---------------OOOOO-----OOOOO-----OOOOO-----OOOOO-----OOOOO-----OOOOO",
"OOOOOOOOOOOOOOOOOOOO-----OOOOOOOOOO----------OOOOO---------------OOOOO-----OOOOO-----OOOOOOOOOOOOOOO-----OOOOO-----OOOOO",
"OOOOOOOOOOOOOOOOOOOO-----OOOOOOOOOO----------OOOOO---------------OOOOO-----OOOOO-----OOOOOOOOOOOOOOO-----OOOOO-----OOOOO",
"OOOOOOOOOOOOOOOOOOOO-----OOOOOOOOOO----------OOOOO---------------OOOOO-----OOOOO-----OOOOOOOOOOOOOOO-----OOOOO-----OOOOO",
"OOOOOOOOOOOOOOOOOOOO-----OOOOOOOOOO----------OOOOO---------------OOOOO-----OOOOO-----OOOOOOOOOOOOOOO-----OOOOO-----OOOOO",
"OOOOOOOOOOOOOOOOOOOO-----OOOOOOOOOO----------OOOOO---------------OOOOO-----OOOOO-----OOOOOOOOOOOOOOO-----OOOOO-----OOOOO",
"OOOOO----------OOOOO-----OOOOO---------------OOOOO---------------OOOOO-----OOOOO-----OOOOO-----OOOOO-----OOOOO-----OOOOO",
"OOOOO----------OOOOO-----OOOOO---------------OOOOO---------------OOOOO-----OOOOO-----OOOOO-----OOOOO-----OOOOO-----OOOOO",
"OOOOO----------OOOOO-----OOOOO---------------OOOOO---------------OOOOO-----OOOOO-----OOOOO-----OOOOO-----OOOOO-----OOOOO",
"OOOOO----------OOOOO-----OOOOO---------------OOOOO---------------OOOOO-----OOOOO-----OOOOO-----OOOOO-----OOOOO-----OOOOO",
"OOOOO----------OOOOO-----OOOOO---------------OOOOO---------------OOOOO-----OOOOO-----OOOOO-----OOOOO-----OOOOO-----OOOOO",
"OOOOO----------OOOOO-----OOOOOOOOOOOOOOO-----OOOOOOOOOOOOOOO-----OOOOOOOOOOOOOOO-----OOOOO-----OOOOO-----OOOOOOOOOO-----",
"OOOOO----------OOOOO-----OOOOOOOOOOOOOOO-----OOOOOOOOOOOOOOO-----OOOOOOOOOOOOOOO-----OOOOO-----OOOOO-----OOOOOOOOOO-----",
"OOOOO----------OOOOO-----OOOOOOOOOOOOOOO-----OOOOOOOOOOOOOOO-----OOOOOOOOOOOOOOO-----OOOOO-----OOOOO-----OOOOOOOOOO-----",
"OOOOO----------OOOOO-----OOOOOOOOOOOOOOO-----OOOOOOOOOOOOOOO-----OOOOOOOOOOOOOOO-----OOOOO-----OOOOO-----OOOOOOOOOO-----",
"OOOOO----------OOOOO-----OOOOOOOOOOOOOOO-----OOOOOOOOOOOOOOO-----OOOOOOOOOOOOOOO-----OOOOO-----OOOOO-----OOOOOOOOOO-----"
};
